<svg width="640" height="420" viewBox="0 0 640 420" fill="none" xmlns="http://www.w3.org/2000/svg">
  <defs>
    <linearGradient id="a" x1="320" y1="0" x2="320" y2="420" gradientUnits="userSpaceOnUse">
      <stop stop-color="#F6FAFF"/>
      <stop offset="1" stop-color="#E4EEFF"/>
    </linearGradient>
  </defs>
  <rect width="640" height="420" rx="28" fill="url(#a)"/>
  <rect x="44" y="44" width="552" height="332" rx="24" fill="#FDFEFF" stroke="#DCE8FF" stroke-width="6"/>
  <rect x="336" y="78" width="204" height="66" rx="18" fill="#FFFFFF" stroke="#D8E3FA" stroke-width="6"/>
  <rect x="352" y="95" width="172" height="22" rx="11" fill="#EEF4FF"/>
  <path d="M362 130H514" stroke="#C2D4F7" stroke-width="8" stroke-linecap="round"/>
  <path d="M378 139V159" stroke="#C2D4F7" stroke-width="6" stroke-linecap="round"/>
  <path d="M414 139V160" stroke="#C2D4F7" stroke-width="6" stroke-linecap="round"/>
  <path d="M450 139V160" stroke="#C2D4F7" stroke-width="6" stroke-linecap="round"/>
  <path d="M486 139V160" stroke="#C2D4F7" stroke-width="6" stroke-linecap="round"/>
  <rect x="84" y="230" width="472" height="92" rx="20" fill="#EDF4FF"/>
  <rect x="84" y="184" width="130" height="46" rx="16" fill="#D8E6FF"/>
  <path d="M112 170C141 136 186 106 248 89" stroke="#9AB8F7" stroke-width="8" stroke-linecap="round"/>
  <path d="M238 111L256 87L226 84" stroke="#9AB8F7" stroke-width="8" stroke-linecap="round" stroke-linejoin="round"/>
  <circle cx="144" cy="280" r="32" fill="#1E6DFF"/>
  <path d="M132 281H156" stroke="white" stroke-width="8" stroke-linecap="round"/>
  <path d="M144 269V293" stroke="white" stroke-width="8" stroke-linecap="round"/>
  <path d="M220 264H415" stroke="#B6C9F5" stroke-width="10" stroke-linecap="round"/>
  <path d="M220 291H358" stroke="#B6C9F5" stroke-width="10" stroke-linecap="round"/>
</svg>
